# xmcd
# 
# Track frame offsets:
#     150
#     13529
#     29584
#     45379
#     67456
#     80526
#     90099
#     102837
#     115484
#     129495
#     143366
#     159902
#     170960
#     183083
#     201091
#     218994
# 
# Disc length: 3096
# 
# Revision: 0
# Processed by: cddbd v1.5.2PL0 Copyright (c) Steve Scherf et al.
# Submitted via: BonkEnc v1.0.6
# 
DISCID=d60c1610
DTITLE=Various Artist - Best Of Hillbilly and Country
DYEAR=2004
DGENRE=Country
TTITLE0=Various Artist - I saw The Light
TTITLE1=Various Artist - Ja to platim
TTITLE2=Various Artist - Chrestysi jed
TTITLE3=Various Artist - Do tmy se koukej
TTITLE4=Various Artist - Slamu v botach nosim
TTITLE5=Various Artist - Nine Pound Hammer
TTITLE6=Various Artist - Kdyz jsme opustili Prahu
TTITLE7=Various Artist - High Cotton
TTITLE8=Various Artist - Az prijde ten den
TTITLE9=Various Artist - Hadej
TTITLE10=Various Artist - The Last Cowboy
TTITLE11=Various Artist - Pocem moje stara
TTITLE12=Various Artist - Folsom Prison Blues
TTITLE13=Various Artist - Chlapi nereznou
TTITLE14=Various Artist - Gotta Slow Down
TTITLE15=Various Artist - Do Australie
EXTD=
EXTT0=
EXTT1=
EXTT2=
EXTT3=
EXTT4=
EXTT5=
EXTT6=
EXTT7=
EXTT8=
EXTT9=
EXTT10=
EXTT11=
EXTT12=
EXTT13=
EXTT14=
EXTT15=
PLAYORDER=
